# xmcd
#
# Track frame offsets:
#	150
#	17348
#	37736
#	57951
#	79059
#	90361
#	127824
#	148978
#	177198
#	198102
#	217853
#	234696
#	254215
#	271318
#
# Disc length: 3923 seconds
#
# Revision: 2
# Processed by: cddbd v1.5.2PL0 Copyright (c) Steve Scherf et al.
# Submitted via: CDmax 2.0
#
DISCID=b50f510e
DTITLE=Hobo Blues Band - Halj meg és nagy leszel
DYEAR=2011
DGENRE=Blues
TTITLE0=Mindenki sztár
TTITLE1=Vadember
TTITLE2=3:20-as blues
TTITLE3=Nem hallod, üvöltök!
TTITLE4=Kopaszkutya
TTITLE5=Gyáva bohóc
TTITLE6=Szabadíts fel!
TTITLE7=Mesél az erdõ
TTITLE8=Mata Hari
TTITLE9=Országút blues
TTITLE10=Rohadt rock and roll
TTITLE11=Üvöltõ vadállat
TTITLE12=Középeurópai hobo blues 2.
TTITLE13=Halj meg és nagy leszel!
EXTD=
EXTT0=
EXTT1=
EXTT2=
EXTT3=
EXTT4=
EXTT5=
EXTT6=
EXTT7=
EXTT8=
EXTT9=
EXTT10=
EXTT11=
EXTT12=
EXTT13=
PLAYORDER=
